Coordinates
version=1
nRows=38
nColumns=17
inDegrees=yes

Units are S.I. units (second, meters, Newtons, ...)
If the header above contains a line with 'inDegrees', this indicates whether rotational values are in degrees (yes) or radians (no).

endheader
time	bJoint_3	seatpos	hipangle	kneeangle	footangle	lbackangle	uarmleft_up	uarmleft_out	uarmleft_trn	se_inout	se_updown	uarmright_up	uarmright_out	uarmright_trn	pe_inout	pe_updown
      1.74500000	      0.00000850	     -0.10924936	     66.83490259	     55.45659980	     32.29150239	     -9.02243900	     15.34453808	     29.43316550	     -7.21289054	     -0.13705379	      0.09032860	     15.34545243	     29.42901403	     -8.49181630	     -0.14500274	      0.09294187
      1.75000000	      0.00000538	     -0.11228869	     66.42001380	     56.25608459	     32.67609840	     -8.64796421	     14.85013181	     29.36671609	     -7.21283951	     -0.03606220	      0.19181840	     14.83962906	     29.35213103	     -8.49171370	     -0.03278787	      0.19485914
      1.75500000	      0.00001750	     -0.11542230	     65.99809802	     57.06956322	     33.06766124	     -8.25645748	     14.36267433	     29.18956393	     -7.21278018	     -0.14929695	      0.27280347	     14.35753780	     29.18489266	     -8.49157898	     -0.14984156	      0.28554452
      1.76000000	     -0.00000301	     -0.11813612	     65.63730159	     57.76556457	     33.40286616	     -7.82094752	     13.97167889	     29.09733980	     -7.21320130	     -0.08160029	      0.01170256	     13.97057581	     29.09403653	     -8.49203641	     -0.08850594	      0.01700086
      1.76500000	     -0.00000398	     -0.12220298	     65.10427304	     58.79443320	     33.89870624	     -7.48701840	     13.58621072	     28.94168718	     -7.21316198	     -0.12300847	     -0.05969647	     13.58887493	     28.93435010	     -8.49194210	     -0.13040541	     -0.06160067
      1.77000000	     -0.00002537	     -0.12512125	     64.72717185	     59.52277257	     34.24994442	     -7.07069446	     13.07258240	     28.73315843	     -7.21381345	     -0.05048859	     -0.10606071	     13.08191382	     28.74542017	     -8.49253809	     -0.06342903	     -0.11215424
      1.77500000	      0.00001082	     -0.12830998	     64.32015862	     60.30931239	     34.62947101	     -6.69472111	     12.56082724	     28.54394949	     -7.21345608	     -0.11698742	     -0.06480440	     12.56633395	     28.53811009	     -8.49215265	     -0.12331099	     -0.07393392
      1.78000000	      0.00000036	     -0.13109528	     63.96867930	     60.98888520	     34.95756450	     -6.24156119	     11.87145651	     28.26610597	     -7.21369807	     -0.20094836	      0.18664403	     11.86761335	     28.26034145	     -8.49204324	     -0.20990079	      0.19938759
      1.78500000	      0.00000145	     -0.13522219	     63.45468141	     61.98328339	     35.43796480	     -5.91491922	     11.45249577	     28.10125767	     -7.21341191	     -0.25431080	      0.17825952	     11.44789954	     28.09058154	     -8.49175948	     -0.26518871	      0.19263707
      1.79000000	      0.00000659	     -0.13808923	     63.10213432	     62.66574517	     35.76787949	     -5.43174114	     10.96077983	     27.85000250	     -7.21399712	     -0.28433527	     -0.06408441	     10.96284036	     27.83994679	     -8.49244921	     -0.30278957	     -0.05898518
      1.79500000	      0.00000363	     -0.14218089	     62.60521536	     63.62826095	     36.23347632	     -5.15206162	     10.55715020	     27.61469926	     -7.21405706	     -0.23974681	     -0.07860451	     10.56197538	     27.60585751	     -8.49254176	     -0.25810124	     -0.08064761
      1.80000000	      0.00001948	     -0.14515389	     62.24856050	     64.31950955	     36.56807005	     -4.68628642	      9.88928696	     27.38122593	     -7.21357931	     -0.18623563	      0.00229477	      9.88903264	     27.37158631	     -8.49210244	     -0.19904390	     -0.00228733
      1.80500000	      0.00000981	     -0.14949053	     61.73463355	     65.31619138	     37.05082493	     -4.36104305	      9.37615679	     27.11293891	     -7.21375283	      0.01320431	      0.05380145	      9.37886078	     27.10977866	     -8.49231028	      0.00913613	      0.04751492
      1.81000000	     -0.00005793	     -0.15155817	     61.49228813	     65.78645151	     37.27873964	     -3.86048788	      8.85471760	     26.92039302	     -7.21342762	      0.05057329	     -0.18511258	      8.86028083	     26.91986743	     -8.49200050	      0.04216130	     -0.19570571
      1.81500000	     -0.00000137	     -0.15602631	     60.97391472	     66.79287725	     37.76679197	     -3.54470290	      8.34637239	     26.48587747	     -7.21249981	     -0.08839865	     -0.07745758	      8.35086511	     26.48518418	     -8.49106517	     -0.09237972	     -0.08458977
      1.82000000	      0.00001593	     -0.15937263	     60.59043971	     67.53789412	     38.12833383	     -3.09061997	      7.69357493	     26.27673437	     -7.21301403	      0.06087168	     -0.10801046	      7.69997578	     26.27641284	     -8.49165016	      0.06040557	     -0.12210525
      1.82500000	      0.00001963	     -0.16330858	     60.14440659	     68.40498789	     38.54939449	     -2.73006610	      7.11611229	     25.88012820	     -7.21265721	      0.00677413	      0.00224546	      7.11941300	     25.87428114	     -8.49133885	      0.01283960	     -0.00768051
      1.83000000	     -0.00000659	     -0.16699330	     59.73151131	     69.20817563	     38.93968694	     -2.32920758	      6.64982414	     25.59267346	     -7.21247752	      0.09998811	     -0.17683827	      6.65673611	     25.59715423	     -8.49114765	      0.10118150	     -0.19205421
      1.83500000	      0.00001147	     -0.17010639	     59.38625509	     69.88019310	     39.26644819	     -1.87333739	      5.95604791	     25.19535628	     -7.21209934	      0.08727929	     -0.14470931	      5.96433743	     25.19802674	     -8.49088483	      0.09305497	     -0.16415342
      1.84000000	      0.00002757	     -0.17451668	     58.90226509	     70.82284069	     39.72510578	     -1.54336799	      5.36017229	     24.71785906	     -7.21215781	      0.05869992	      0.05579907	      5.36363538	     24.71585005	     -8.49112448	      0.07026389	      0.04420822
      1.84500000	      0.00001448	     -0.17820078	     58.50251412	     71.60195946	     40.10447358	     -1.12487267	      4.85120423	     24.28726285	     -7.21103572	     -0.06781235	     -0.12764734	      4.85677686	     24.28712789	     -8.48991476	     -0.06812870	     -0.13713005
      1.85000000	      0.00000297	     -0.18204607	     58.08953663	     72.40737715	     40.49691378	     -0.76646338	      4.24245411	     23.81775730	     -7.21077918	     -0.08261439	      0.01211344	      4.24509421	     23.81581471	     -8.48974138	     -0.08739259	      0.01352801
      1.85500000	      0.00000592	     -0.18522725	     57.75107771	     73.06786310	     40.81894082	     -0.32470222	      3.53170842	     23.40441014	     -7.21092495	      0.06454300	      0.07045926	      3.53260652	     23.40392844	     -8.49004685	      0.06995376	      0.06505187
      1.86000000	     -0.00000263	     -0.18915134	     57.33743781	     73.87555603	     41.21299384	      0.12517349	      2.96746834	     22.97080586	     -7.21015671	      0.08821753	     -0.09017717	      2.97096043	     22.97189534	     -8.48925181	      0.09372624	     -0.10031878
      1.86500000	      0.00000326	     -0.19327114	     56.90761134	     74.71543941	     41.62305075	      0.47882868	      2.38149321	     22.50629880	     -7.21104115	      0.32572989	     -0.08468555	      2.38525773	     22.51509572	     -8.49024840	      0.34114229	     -0.10393833
      1.87000000	     -0.00001008	     -0.19701105	     56.52125582	     75.47089827	     41.99215408	      0.90425007	      1.78055286	     21.84071433	     -7.20847384	     -0.08695964	     -0.11358471	      1.79827636	     21.84258442	     -8.48773440	     -0.08517057	     -0.11761024
      1.87500000	      0.00000747	     -0.20120533	     56.09214224	     76.31054387	     42.40268610	      1.25814550	      1.19900452	     21.39965983	     -7.20966861	      0.19692974	     -0.10779931	      1.20469113	     21.40378083	     -8.48905470	      0.20431998	     -0.12589144
      1.88000000	      0.00000573	     -0.20522710	     55.68473097	     77.10830205	     42.79303302	      1.68724682	      0.61667084	     20.78135138	     -7.20808874	      0.06702598	     -0.18572829	      0.62489948	     20.78508365	     -8.48744720	      0.07515192	     -0.20446173
      1.88500000	      0.00002355	     -0.20934386	     55.27166030	     77.91772272	     43.18938301	      2.05871811	     -0.08176449	     20.09475784	     -7.20822329	      0.06369077	      0.02796065	     -0.07630951	     20.09779410	     -8.48815924	      0.07497631	      0.01579657
      1.89000000	      0.00000791	     -0.21319350	     54.88892021	     78.66824121	     43.55716142	      2.44850632	     -0.58571644	     19.47092703	     -7.20685050	     -0.05993232	     -0.15467887	     -0.57946223	     19.47151857	     -8.48666968	     -0.05847577	     -0.16576782
      1.89500000	      0.00001812	     -0.21750455	     54.46423463	     79.50161919	     43.96585382	      2.84016770	     -1.28375824	     18.81502511	     -7.20673747	     -0.03225802	      0.02653087	     -1.27879203	     18.81410700	     -8.48696279	     -0.02840318	      0.01777121
      1.90000000	      0.00000786	     -0.22139667	     54.08428432	     80.24776262	     44.33204694	      3.24984031	     -1.87065929	     18.13702178	     -7.20599238	     -0.07034001	     -0.05339059	     -1.86681621	     18.13819353	     -8.48622932	     -0.07016330	     -0.06035106
      1.90500000	      0.00001943	     -0.22612662	     53.62683888	     81.14679371	     44.77363259	      3.62280916	     -2.46698683	     17.55108402	     -7.20640301	      0.11839106	     -0.11052252	     -2.46197722	     17.55322900	     -8.48668951	      0.12313210	     -0.12516497
      1.91000000	      0.00000756	     -0.23007851	     53.24815757	     81.89162003	     45.13977759	      4.03386185	     -3.07349483	     16.87650451	     -7.20562849	      0.08986195	     -0.14493774	     -3.06688409	     16.88328075	     -8.48596222	      0.09791495	     -0.16241024
      1.91500000	      0.00002819	     -0.23439988	     52.83762878	     82.69970433	     45.53733311	      4.42494699	     -3.80766768	     16.02871511	     -7.20425429	     -0.05808215	      0.13282252	     -3.81252962	     16.02973049	     -8.48607582	     -0.04948113	      0.12750975
      1.92000000	     -0.00003380	     -0.23798369	     52.49991077	     83.36495756	     45.86486833	      4.83762576	     -4.35895998	     15.38596585	     -7.20359637	      0.16103790	     -0.11321956	     -4.35524041	     15.39093726	     -8.48539421	      0.16765225	     -0.12442439
      1.92500000	      0.00001227	     -0.24227764	     52.09847051	     84.15632022	     46.25479073	      5.25620309	     -4.95345236	     14.54948094	     -7.20184975	     -0.00599384	     -0.15314750	     -4.94605934	     14.55277582	     -8.48365696	      0.00180624	     -0.16884824
      1.93000000	      0.00000983	     -0.24739777	     51.62422289	     85.09204552	     46.71626841	      5.56142032	     -5.51997831	     13.85398062	     -7.20396121	      0.33893811	     -0.07924871	     -5.51546562	     13.85701927	     -8.48594514	      0.35886942	     -0.10166909
